<svg xmlns="http://www.w3.org/2000/svg" width="41" height="40" viewBox="0 0 41 40" fill="none">
    <path fill-rule="evenodd" clip-rule="evenodd" d="M21.4621 6C17.8977 6 15.25 9.201 15.25 12.8333C15.25 16.4657 17.8977 19.6667 21.4621 19.6667C25.0265 19.6667 27.6742 16.4657 27.6742 12.8333C27.6742 9.201 25.0265 6 21.4621 6Z" fill="#909AB1"/>
    <path fill-rule="evenodd" clip-rule="evenodd" d="M17.0152 22C13.1427 22 9.49621 23.8442 7.17273 26.9778L7.10682 27.0667C6.55065 27.8168 6.25 28.7291 6.25 29.6667C6.25 32.0599 8.16805 34 10.5341 34H30.9659C33.3319 34 35.25 32.0599 35.25 29.6667C35.25 28.7291 34.9494 27.8168 34.3932 27.0667L34.3273 26.9778C32.0038 23.8442 28.3573 22 24.4848 22H17.0152Z" fill="#909AB1"/>
</svg>