<svg xmlns="http://www.w3.org/2000/svg" width="18" height="22" viewBox="0 0 18 22" fill="none">
    <path fill-rule="evenodd" clip-rule="evenodd" d="M9.00001 0C5.13401 0 2.00001 3.13401 2.00001 7V10.8074L0.071528 15.6286C-0.0517083 15.9367 -0.0140925 16.2859 0.171937 16.5606C0.357968 16.8354 0.668181 17 1 17H4C4 19.7614 6.23858 22 9 22C11.7614 22 14 19.7614 14 17H17C17.3318 17 17.642 16.8354 17.8281 16.5606C18.0141 16.2859 18.0517 15.9367 17.9285 15.6286L16 10.8074V7C16 3.13401 12.866 0 9.00001 0ZM12 17H6C6 18.6569 7.34315 20 9 20C10.6569 20 12 18.6569 12 17ZM15.523 15L14.0715 11.3714C14.0243 11.2533 14 11.1272 14 11V7C14 4.23858 11.7614 2 9.00001 2C6.23858 2 4.00001 4.23858 4.00001 7V11C4.00001 11.1272 3.97573 11.2533 3.92848 11.3714L2.47704 15H15.523Z" fill="#909AB1"/>
</svg>