<svg xmlns="http://www.w3.org/2000/svg" width="41" height="40" viewBox="0 0 41 40" fill="none">
    <path fill-rule="evenodd" clip-rule="evenodd" d="M26.3189 8.86447C25.2532 8.33163 24.0495 8.33381 22.6955 8.33627L22.4162 8.3366H16.8033L16.7368 8.3366C15.8967 8.33656 15.1614 8.33653 14.5487 8.39034C13.892 8.44801 13.246 8.57549 12.6156 8.90477C12.1273 9.15982 11.6845 9.4938 11.3052 9.89323C10.8154 10.4089 10.5153 10.995 10.2795 11.6106C10.0594 12.185 9.85743 12.892 9.62666 13.6998L9.60839 13.7638L9.52039 14.0718C9.46394 14.2694 9.43479 14.3702 9.41079 14.4428L9.40839 14.45L9.4011 14.4522C9.32772 14.4738 9.22596 14.4995 9.0266 14.5494L8.81232 14.6029C7.53664 14.921 6.58146 15.1592 5.78104 15.6156C4.25688 16.4845 3.13669 17.9192 2.66337 19.6086C2.4148 20.4958 2.41536 21.4802 2.41609 22.795L2.41618 23.0158V23.9273L2.41617 23.9847C2.41611 24.4375 2.41606 24.8785 2.44877 25.2511C2.48478 25.6612 2.56999 26.1438 2.83553 26.6219C3.13787 27.1662 3.58662 27.6149 4.13093 27.9173C4.60898 28.1828 5.09159 28.268 5.50166 28.304C5.87423 28.3367 6.31518 28.3367 6.76804 28.3366H6.76811L6.82544 28.3366H8.60665C9.79012 28.3366 10.7495 27.3772 10.7495 26.1937C10.7495 25.5363 11.2825 25.0033 11.94 25.0033H12.8924C13.5498 25.0033 14.0828 25.5363 14.0828 26.1937C14.0828 27.3772 15.0422 28.3366 16.2257 28.3366H25.2733C26.4568 28.3366 27.4162 27.3772 27.4162 26.1937C27.4162 25.5363 27.9492 25.0033 28.6067 25.0033H29.559C30.2165 25.0033 30.7495 25.5363 30.7495 26.1937C30.7495 27.3772 31.7089 28.3366 32.8924 28.3366H34.9036L34.9484 28.3366C35.3038 28.3366 35.65 28.3367 35.9444 28.3163C36.2665 28.294 36.6483 28.2416 37.0433 28.0753C37.8455 27.7374 38.4837 27.0992 38.8215 26.2971C38.9879 25.902 39.0402 25.5203 39.0625 25.1982C39.0829 24.9037 39.0829 24.5575 39.0828 24.2021V24.1574V23.2936L39.0829 23.1045V23.1045C39.0834 21.994 39.0838 21.1664 38.914 20.4264C38.4089 18.2248 36.8234 16.4287 34.7015 15.6544C33.9882 15.3942 33.1669 15.2919 32.0649 15.1547L31.8773 15.1313C31.7621 15.1169 31.7046 15.1096 31.6627 15.1033L31.659 15.1027L31.6566 15.0998C31.6304 15.0665 31.5956 15.0202 31.5259 14.9274L29.0828 11.6699L28.9155 11.4463C28.1051 10.3616 27.3846 9.3973 26.3189 8.86447Z" fill="#909AB1"/>
    <path fill-rule="evenodd" clip-rule="evenodd" d="M12.416 21.6641C9.65459 21.6641 7.41602 23.9026 7.41602 26.6641C7.41602 29.4255 9.65459 31.6641 12.416 31.6641C15.1774 31.6641 17.416 29.4255 17.416 26.6641C17.416 23.9026 15.1774 21.6641 12.416 21.6641ZM10.7493 26.6641C10.7493 25.7436 11.4955 24.9974 12.416 24.9974C13.3365 24.9974 14.0827 25.7436 14.0827 26.6641C14.0827 27.5845 13.3365 28.3307 12.416 28.3307C11.4955 28.3307 10.7493 27.5845 10.7493 26.6641Z" fill="#909AB1"/>
    <path fill-rule="evenodd" clip-rule="evenodd" d="M29.0827 21.6641C26.3213 21.6641 24.0827 23.9026 24.0827 26.6641C24.0827 29.4255 26.3213 31.6641 29.0827 31.6641C31.8441 31.6641 34.0827 29.4255 34.0827 26.6641C34.0827 23.9026 31.8441 21.6641 29.0827 21.6641ZM27.416 26.6641C27.416 25.7436 28.1622 24.9974 29.0827 24.9974C30.0032 24.9974 30.7493 25.7436 30.7493 26.6641C30.7493 27.5845 30.0032 28.3307 29.0827 28.3307C28.1622 28.3307 27.416 27.5845 27.416 26.6641Z" fill="#909AB1"/>
</svg>