<svg xmlns="http://www.w3.org/2000/svg" width="24" height="24" viewBox="0 0 24 24" fill="none">
    <path fill-rule="evenodd" clip-rule="evenodd" d="M7.93418 1C7.95605 1 7.97799 1 8.00001 1L16.0658 1C16.9523 0.999953 17.7161 0.99991 18.3278 1.08215C18.9833 1.17028 19.6117 1.36902 20.1213 1.87868C20.631 2.38835 20.8297 3.0167 20.9179 3.67221C21.0001 4.28388 21.0001 5.0477 21 5.9342V18.0658C21.0001 18.9523 21.0001 19.7161 20.9179 20.3278C20.8297 20.9833 20.631 21.6117 20.1213 22.1213C19.6117 22.631 18.9833 22.8297 18.3278 22.9179C17.7161 23.0001 16.9523 23.0001 16.0658 23H7.9342C7.0477 23.0001 6.28388 23.0001 5.67221 22.9179C5.0167 22.8297 4.38835 22.631 3.87868 22.1213C3.36902 21.6117 3.17028 20.9833 3.08215 20.3278C2.99991 19.7161 2.99995 18.9523 3 18.0658L3 6.00001C3 5.97799 3 5.95604 3 5.93418C2.99995 5.04769 2.99991 4.28387 3.08215 3.67221C3.17028 3.0167 3.36902 2.38835 3.87868 1.87868C4.38835 1.36902 5.0167 1.17028 5.67221 1.08215C6.28387 0.99991 7.04769 0.999953 7.93418 1ZM5.93871 3.06431C5.50497 3.12263 5.36902 3.21677 5.2929 3.2929C5.21677 3.36902 5.12263 3.50497 5.06431 3.93871C5.00213 4.40122 5.00001 5.02893 5.00001 6.00001V18C5.00001 18.9711 5.00213 19.5988 5.06431 20.0613C5.12263 20.495 5.21677 20.631 5.2929 20.7071C5.36902 20.7832 5.50497 20.8774 5.93871 20.9357C6.40122 20.9979 7.02893 21 8.00001 21H16C16.9711 21 17.5988 20.9979 18.0613 20.9357C18.495 20.8774 18.631 20.7832 18.7071 20.7071C18.7832 20.631 18.8774 20.495 18.9357 20.0613C18.9979 19.5988 19 18.9711 19 18V6.00001C19 5.02893 18.9979 4.40122 18.9357 3.93871C18.8774 3.50497 18.7832 3.36902 18.7071 3.2929C18.631 3.21677 18.495 3.12263 18.0613 3.06431C17.5988 3.00213 16.9711 3.00001 16 3.00001H8.00001C7.02893 3.00001 6.40122 3.00213 5.93871 3.06431Z" fill="#909AB1"/>
    <path fill-rule="evenodd" clip-rule="evenodd" d="M12 9.00001H8.00001V7.00001H12V9.00001Z" fill="#909AB1"/>
    <path fill-rule="evenodd" clip-rule="evenodd" d="M16 13H8.00001V11H16V13Z" fill="#909AB1"/>
    <path fill-rule="evenodd" clip-rule="evenodd" d="M16 17H8.00001V15H16V17Z" fill="#909AB1"/>
</svg>