<svg xmlns="http://www.w3.org/2000/svg" width="16" height="16" viewBox="0 0 16 16" fill="none">
    <g clip-path="url(#clip0_825_15)">
        <path d="M7.99935 0.664063H6.61724C5.40161 0.664045 4.42176 0.664031 3.65113 0.76764C2.85103 0.87521 2.17736 1.10534 1.64233 1.64037C1.10729 2.17541 0.877163 2.84908 0.769593 3.64917C0.665984 4.41981 0.665998 5.39964 0.666016 6.61527V9.37951C0.665998 10.5951 0.665984 11.575 0.769593 12.3456C0.877163 13.1457 1.10729 13.8194 1.64233 14.3544C2.17736 14.8895 2.85103 15.1196 3.65113 15.2272C4.42177 15.3308 5.40162 15.3307 6.61726 15.3307H9.38144C10.5971 15.3307 11.5769 15.3308 12.3476 15.2272C13.1477 15.1196 13.8213 14.8895 14.3564 14.3544C14.8914 13.8194 15.1215 13.1457 15.2291 12.3456C15.3327 11.575 15.3327 10.5951 15.3327 9.37949V7.9974H13.9994V9.33073C13.9994 10.6067 13.9979 11.4965 13.9077 12.168C13.82 12.8202 13.6596 13.1656 13.4136 13.4116C13.1676 13.6576 12.8222 13.818 12.1699 13.9057C11.4985 13.996 10.6086 13.9974 9.33268 13.9974H6.66602C5.39009 13.9974 4.50021 13.996 3.82879 13.9057C3.17655 13.818 2.83115 13.6576 2.58514 13.4116C2.33913 13.1656 2.17873 12.8202 2.09104 12.168C2.00077 11.4965 1.99935 10.6067 1.99935 9.33073V6.66406C1.99935 5.38814 2.00077 4.49826 2.09104 3.82684C2.17873 3.17459 2.33913 2.8292 2.58514 2.58318C2.83115 2.33717 3.17655 2.17678 3.82879 2.08908C4.50021 1.99881 5.39009 1.9974 6.66602 1.9974H7.99935V0.664063Z" fill="#16348F"/>
        <path fill-rule="evenodd" clip-rule="evenodd" d="M13.7469 1.46893C12.9658 0.687877 11.6995 0.687875 10.9185 1.46892L4.86128 7.52612C4.73625 7.65114 4.66602 7.82071 4.66602 7.99752V10.6642C4.66602 11.0324 4.96449 11.3309 5.33268 11.3309L7.99935 11.3309C8.17616 11.3309 8.34573 11.2606 8.47075 11.1356L14.5279 5.0784C15.309 4.29735 15.309 3.03102 14.5279 2.24997L13.7469 1.46893ZM11.8613 2.41173C12.1216 2.15138 12.5437 2.15138 12.8041 2.41173L13.5851 3.19278C13.8455 3.45313 13.8455 3.87524 13.5851 4.13559L11.9993 5.72138L10.2755 3.99752L11.8613 2.41173ZM9.33268 4.94033L11.0565 6.66419L7.72321 9.99752H5.99935V8.27366L9.33268 4.94033Z" fill="#16348F"/>
    </g>
    <defs>
        <clipPath id="clip0_825_15">
            <rect width="16" height="16" fill="white"/>
        </clipPath>
    </defs>
</svg>