<svg xmlns="http://www.w3.org/2000/svg" width="24" height="24" viewBox="0 0 24 24" fill="none">
    <path fill-rule="evenodd" clip-rule="evenodd" d="M12 6C9.79086 6 8 7.79086 8 10C8 12.2091 9.79086 14 12 14C14.2091 14 16 12.2091 16 10C16 7.79086 14.2091 6 12 6ZM10 10C10 8.89543 10.8954 8 12 8C13.1046 8 14 8.89543 14 10C14 11.1046 13.1046 12 12 12C10.8954 12 10 11.1046 10 10Z" fill="#0C215C"/>
    <path fill-rule="evenodd" clip-rule="evenodd" d="M12 1C7.04434 1 3 4.95868 3 9.875C3 10.8686 3.32698 11.9571 3.78465 13.0161C4.24904 14.0907 4.88395 15.2157 5.57756 16.3044C6.96511 18.4823 8.63793 20.5928 9.80047 21.9848C10.955 23.3672 13.045 23.3672 14.1995 21.9848C15.3621 20.5928 17.0349 18.4823 18.4224 16.3044C19.116 15.2157 19.751 14.0907 20.2154 13.0161C20.673 11.9571 21 10.8686 21 9.875C21 4.95868 16.9557 1 12 1ZM5 9.875C5 6.09283 8.1191 3 12 3C15.8809 3 19 6.09283 19 9.875C19 10.4695 18.7937 11.2642 18.3794 12.2227C17.972 13.1657 17.3964 14.1927 16.7357 15.2297C15.4146 17.3033 13.8034 19.339 12.6645 20.7028C12.3095 21.1279 11.6905 21.1279 11.3355 20.7028C10.1966 19.339 8.58539 17.3033 7.26431 15.2297C6.60361 14.1927 6.02805 13.1657 5.62055 12.2227C5.20633 11.2642 5 10.4695 5 9.875Z" fill="#0C215C"/>
</svg>