<svg xmlns="http://www.w3.org/2000/svg" width="24" height="24" viewBox="0 0 24 24" fill="none">
    <path fill-rule="evenodd" clip-rule="evenodd" d="M3 9.875C3 4.95868 7.04434 1 12 1C16.9557 1 21 4.95868 21 9.875C21 10.8686 20.673 11.9571 20.2154 13.0161C19.751 14.0907 19.116 15.2157 18.4224 16.3044C17.0349 18.4823 15.3621 20.5928 14.1995 21.9848C13.045 23.3672 10.955 23.3672 9.80047 21.9848C8.63793 20.5928 6.96511 18.4823 5.57756 16.3044C4.88395 15.2157 4.24904 14.0907 3.78465 13.0161C3.32698 11.9571 3 10.8686 3 9.875ZM10 10C10 8.89543 10.8954 8 12 8C13.1046 8 14 8.89543 14 10C14 11.1046 13.1046 12 12 12C10.8954 12 10 11.1046 10 10ZM12 6C9.79086 6 8 7.79086 8 10C8 12.2091 9.79086 14 12 14C14.2091 14 16 12.2091 16 10C16 7.79086 14.2091 6 12 6Z" fill="#EC6935"/>
</svg>