<svg xmlns="http://www.w3.org/2000/svg" width="41" height="40" viewBox="0 0 41 40" fill="none">
    <path fill-rule="evenodd" clip-rule="evenodd" d="M26.3193 8.86203C25.2537 8.32919 24.05 8.33137 22.6959 8.33382L22.4166 8.33416H16.8038L16.7373 8.33416C15.8971 8.33412 15.1618 8.33409 14.5491 8.3879C13.8924 8.44557 13.2464 8.57305 12.616 8.90233C12.1277 9.15738 11.685 9.49136 11.3056 9.89079C10.8158 10.4065 10.5158 10.9926 10.2799 11.6082C10.0598 12.1825 9.85786 12.8895 9.62708 13.6974L9.60882 13.7613L9.52082 14.0693C9.46436 14.2669 9.43522 14.3678 9.41122 14.4404L9.40882 14.4476L9.40153 14.4498C9.32814 14.4713 9.22638 14.4971 9.02702 14.5469L8.81274 14.6004C7.53707 14.9186 6.58188 15.1568 5.78147 15.6131C4.25731 16.482 3.13712 17.9168 2.6638 19.6062C2.41523 20.4933 2.41578 21.4778 2.41652 22.7925L2.4166 23.0134V23.9249L2.4166 23.9822C2.41654 24.4351 2.41648 24.8761 2.4492 25.2487C2.48521 25.6587 2.57042 26.1414 2.83595 26.6194C3.13829 27.1637 3.58704 27.6125 4.13135 27.9148C4.6094 28.1803 5.09202 28.2656 5.50209 28.3016C5.87466 28.3343 6.31561 28.3342 6.76847 28.3342H6.76853L6.82587 28.3342H8.60708C9.79054 28.3342 10.7499 27.3748 10.7499 26.1913C10.7499 25.5338 11.2829 25.0008 11.9404 25.0008H12.8928C13.5503 25.0008 14.0833 25.5338 14.0833 26.1913C14.0833 27.3748 15.0427 28.3342 16.2261 28.3342H25.2737C26.4572 28.3342 27.4166 27.3748 27.4166 26.1913C27.4166 25.5338 27.9496 25.0008 28.6071 25.0008H29.5595C30.2169 25.0008 30.7499 25.5338 30.7499 26.1913C30.7499 27.3748 31.7093 28.3342 32.8928 28.3342H34.904L34.9488 28.3342C35.3042 28.3342 35.6504 28.3342 35.9449 28.3138C36.2669 28.2915 36.6487 28.2392 37.0437 28.0728C37.8459 27.735 38.4841 27.0968 38.8219 26.2946C38.9883 25.8996 39.0406 25.5178 39.063 25.1958C39.0833 24.9013 39.0833 24.5551 39.0833 24.1997V24.1549V23.2912L39.0833 23.102V23.102C39.0838 21.9915 39.0842 21.1639 38.9144 20.4239C38.4093 18.2223 36.8238 16.4263 34.7019 15.652C33.9886 15.3917 33.1673 15.2895 32.0654 15.1522L31.8777 15.1288C31.7625 15.1144 31.705 15.1071 31.6632 15.1009L31.6594 15.1003L31.6571 15.0973C31.6309 15.0641 31.596 15.0178 31.5264 14.9249L29.0833 11.6675L28.9159 11.4438C28.1055 10.3591 27.385 9.39486 26.3193 8.86203Z" fill="#EC6935"/>
    <path fill-rule="evenodd" clip-rule="evenodd" d="M12.4164 21.6675C9.65502 21.6675 7.41644 23.9061 7.41644 26.6675C7.41644 29.4289 9.65502 31.6675 12.4164 31.6675C15.1779 31.6675 17.4164 29.4289 17.4164 26.6675C17.4164 23.9061 15.1779 21.6675 12.4164 21.6675ZM10.7498 26.6675C10.7498 25.747 11.496 25.0008 12.4164 25.0008C13.3369 25.0008 14.0831 25.747 14.0831 26.6675C14.0831 27.588 13.3369 28.3341 12.4164 28.3341C11.496 28.3341 10.7498 27.588 10.7498 26.6675Z" fill="#16348F"/>
    <path fill-rule="evenodd" clip-rule="evenodd" d="M29.0831 21.6675C26.3217 21.6675 24.0831 23.9061 24.0831 26.6675C24.0831 29.4289 26.3217 31.6675 29.0831 31.6675C31.8445 31.6675 34.0831 29.4289 34.0831 26.6675C34.0831 23.9061 31.8445 21.6675 29.0831 21.6675ZM27.4164 26.6675C27.4164 25.747 28.1626 25.0008 29.0831 25.0008C30.0036 25.0008 30.7498 25.747 30.7498 26.6675C30.7498 27.588 30.0036 28.3341 29.0831 28.3341C28.1626 28.3341 27.4164 27.588 27.4164 26.6675Z" fill="#16348F"/>
</svg>