<svg xmlns="http://www.w3.org/2000/svg" width="41" height="40" viewBox="0 0 41 40" fill="none">
    <path d="M12.8056 7C11.7176 6.99994 10.7802 6.99989 10.0295 7.10081C9.22504 7.20898 8.45388 7.45289 7.82838 8.07838C7.20289 8.70388 6.95898 9.47504 6.85081 10.2795C6.74989 11.0302 6.74994 11.9676 6.75 13.0556V24.2626C6.74994 25.3506 6.74989 26.288 6.85081 27.0387C6.95898 27.8431 7.20289 28.6143 7.82838 29.2398C8.45388 29.8653 9.22504 30.1092 10.0295 30.2174C10.7802 30.3183 11.7176 30.3182 12.8056 30.3182L14.5348 30.3182C15.6382 30.3182 15.848 30.3399 16.0211 30.4116C16.1942 30.4833 16.358 30.6163 17.1382 31.3966L18.5485 32.8069C18.7219 32.9805 18.9283 33.1871 19.1297 33.3408C19.373 33.5264 19.7467 33.7458 20.25 33.7458C20.7533 33.7458 21.127 33.5264 21.3703 33.3408C21.5717 33.1871 21.7781 32.9805 21.9515 32.8069L23.3618 31.3966C24.142 30.6163 24.3058 30.4833 24.4789 30.4116C24.652 30.3399 24.8618 30.3182 25.9652 30.3182L27.6944 30.3182C28.7824 30.3182 29.7198 30.3183 30.4705 30.2174C31.275 30.1092 32.0461 29.8653 32.6716 29.2398C33.2971 28.6143 33.541 27.8431 33.6492 27.0387C33.7501 26.288 33.7501 25.3506 33.75 24.2626V13.0556C33.7501 11.9676 33.7501 11.0302 33.6492 10.2795C33.541 9.47504 33.2971 8.70388 32.6716 8.07838C32.0461 7.45289 31.275 7.20898 30.4705 7.10081C29.7198 6.99989 28.7824 6.99994 27.6944 7H12.8056Z" fill="#EC6935"/>
    <path fill-rule="evenodd" clip-rule="evenodd" d="M18.545 13.7647C18.1294 14.1528 17.7954 14.7769 17.7954 15.7441H15.3408C15.3408 14.1545 15.9164 12.8611 16.8696 11.9708C17.8051 11.0971 19.0289 10.6816 20.2243 10.6816C23.0524 10.6816 25.159 13.1568 25.159 15.9697C25.159 18.3579 23.6407 20.5025 21.4516 21.0958V22.801H18.997V20.0306C18.997 19.3528 19.5465 18.8033 20.2243 18.8033C21.4913 18.8033 22.7045 17.6422 22.7045 15.9697C22.7045 14.2973 21.4913 13.1362 20.2243 13.1362C19.5826 13.1362 18.9783 13.3599 18.545 13.7647ZM21.4772 24.7441V27.301H19.0226V24.7441H21.4772Z" fill="#16348F"/>
</svg>