<svg xmlns="http://www.w3.org/2000/svg" width="24" height="24" viewBox="0 0 24 24" fill="none">
    <path fill-rule="evenodd" clip-rule="evenodd" d="M12 8C9.79086 8 8 9.79086 8 12C8 14.2091 9.79086 16 12 16C14.2091 16 16 14.2091 16 12C16 9.79086 14.2091 8 12 8ZM10 12C10 10.8954 10.8954 10 12 10C13.1046 10 14 10.8954 14 12C14 13.1046 13.1046 14 12 14C10.8954 14 10 13.1046 10 12Z" fill="#909AB1"/>
    <path fill-rule="evenodd" clip-rule="evenodd" d="M10.8013 1C9.14334 1 7.85101 2.43702 8.02631 4.08572C8.09741 4.75442 7.35431 5.20098 6.79722 4.82433L6.59534 4.68784C5.22521 3.7615 3.35922 4.16483 2.49397 5.57434L1.40706 7.34497C0.52809 8.77684 1.12861 10.6553 2.67518 11.3117C3.28248 11.5695 3.2826 12.4304 2.67509 12.6883C1.12851 13.3447 0.527885 15.2232 1.40689 16.6551L2.49373 18.4256C3.35899 19.8352 5.22504 20.2385 6.59521 19.3121L6.79716 19.1756C7.35428 18.7989 8.09741 19.2455 8.02631 19.9142C7.85101 21.563 9.14336 23 10.8014 23H13.1984C14.8564 23 16.1488 21.5629 15.9735 19.9142C15.9024 19.2454 16.6455 18.7988 17.2027 19.1755L17.4047 19.3121C18.7749 20.2385 20.641 19.8351 21.5063 18.4255L22.5931 16.6551C23.4721 15.2232 22.8715 13.3447 21.3249 12.6883C20.7174 12.4304 20.7175 11.5695 21.3248 11.3117C22.8714 10.6553 23.4719 8.77683 22.5929 7.34497L21.5061 5.57442C20.6408 4.16487 18.7748 3.76153 17.4046 4.6879L17.2026 4.82443C16.6455 5.2011 15.9024 4.75451 15.9735 4.08577C16.1488 2.43704 14.8564 1 13.1984 1H10.8013ZM10.0151 3.87427C9.96543 3.40715 10.3316 3 10.8013 3H13.1984C13.6682 3 14.0344 3.40717 13.9847 3.87432C13.7337 6.23454 16.3566 7.81068 18.3228 6.48128L18.5248 6.34475C18.9513 6.05636 19.5322 6.18193 19.8016 6.62073L20.8885 8.39128C21.1276 8.78091 20.9642 9.29206 20.5434 9.47069C18.3111 10.4182 18.3114 13.5819 20.5435 14.5293C20.9644 14.7079 21.1278 15.2192 20.8886 15.6088L19.8018 17.3792C19.5325 17.8181 18.9515 17.9436 18.5249 17.6552L18.3229 17.5186C16.3566 16.1892 13.7337 17.7654 13.9847 20.1256C14.0344 20.5928 13.6682 21 13.1984 21H10.8014C10.3316 21 9.96543 20.5928 10.0151 20.1257C10.266 17.7655 7.64324 16.1893 5.67696 17.5187L5.47501 17.6553C5.04847 17.9437 4.46756 17.8181 4.1982 17.3793L3.11137 15.6088C2.87219 15.2192 3.0356 14.7079 3.45652 14.5293C5.68857 13.5819 5.68889 10.4182 3.45661 9.47069C3.03576 9.29206 2.87235 8.78091 3.11153 8.39128L4.19845 6.62065C4.46779 6.18189 5.04865 6.05634 5.47515 6.3447L5.67702 6.48118C7.64327 7.81056 10.266 6.23444 10.0151 3.87427Z" fill="#909AB1"/>
</svg>