<svg xmlns="http://www.w3.org/2000/svg" width="24" height="24" viewBox="0 0 24 24" fill="none">
    <path d="M2 12L1.29289 11.2929C0.902369 11.6834 0.902369 12.3166 1.29289 12.7071L2 12ZM19.6575 6.34315L20.3646 5.63604L19.6575 6.34315ZM16.5 11H2.5V13H16.5V11ZM5.29289 7.29289L1.29289 11.2929L2.70711 12.7071L6.70711 8.70711L5.29289 7.29289ZM1.29289 12.7071L5.29289 16.7071L6.70711 15.2929L2.70711 11.2929L1.29289 12.7071ZM18.9504 7.05025C21.684 9.78392 21.684 14.2161 18.9504 16.9497L20.3646 18.364C23.8793 14.8492 23.8793 9.15076 20.3646 5.63604L18.9504 7.05025ZM18.9504 16.9497C16.2167 19.6834 11.7845 19.6834 9.05086 16.9497L7.63664 18.364C11.1514 21.8787 16.8498 21.8787 20.3646 18.364L18.9504 16.9497ZM9.05086 7.05025C11.7845 4.31658 16.2167 4.31658 18.9504 7.05025L20.3646 5.63604C16.8498 2.12132 11.1514 2.12132 7.63664 5.63604L9.05086 7.05025Z" fill="#FB2C36"/>
</svg>