<svg xmlns="http://www.w3.org/2000/svg" width="41" height="40" viewBox="0 0 41 40" fill="none">
    <path d="M12.8056 7C11.7176 6.99994 10.7802 6.99989 10.0295 7.10081C9.22504 7.20898 8.45388 7.45289 7.82838 8.07838C7.20289 8.70388 6.95898 9.47504 6.85081 10.2795C6.74989 11.0302 6.74994 11.9676 6.75 13.0556V24.2626C6.74994 25.3506 6.74989 26.288 6.85081 27.0387C6.95898 27.8431 7.20289 28.6143 7.82838 29.2398C8.45388 29.8653 9.22504 30.1092 10.0295 30.2174C10.7802 30.3183 11.7176 30.3182 12.8056 30.3182L14.5348 30.3182C15.6382 30.3182 15.848 30.3399 16.0211 30.4116C16.1942 30.4833 16.358 30.6163 17.1382 31.3966L18.5485 32.8069C18.7219 32.9805 18.9283 33.1871 19.1297 33.3408C19.373 33.5264 19.7467 33.7458 20.25 33.7458C20.7533 33.7458 21.127 33.5264 21.3703 33.3408C21.5717 33.1871 21.7781 32.9805 21.9515 32.8069L23.3618 31.3966C24.142 30.6163 24.3058 30.4833 24.4789 30.4116C24.652 30.3399 24.8618 30.3182 25.9652 30.3182L27.6944 30.3182C28.7824 30.3182 29.7198 30.3183 30.4705 30.2174C31.275 30.1092 32.0461 29.8653 32.6716 29.2398C33.2971 28.6143 33.541 27.8431 33.6492 27.0387C33.7501 26.288 33.7501 25.3506 33.75 24.2626V13.0556C33.7501 11.9676 33.7501 11.0302 33.6492 10.2795C33.541 9.47504 33.2971 8.70388 32.6716 8.07838C32.0461 7.45289 31.275 7.20898 30.4705 7.10081C29.7198 6.99989 28.7824 6.99994 27.6944 7H12.8056Z" fill="#909AB1"/>
    <path fill-rule="evenodd" clip-rule="evenodd" d="M18.546 13.7627C18.1304 14.1508 17.7963 14.775 17.7963 15.7422H15.3418C15.3418 14.1526 15.9173 12.8591 16.8706 11.9688C17.8061 11.0951 19.0299 10.6797 20.2253 10.6797C23.0534 10.6797 25.16 13.1548 25.16 15.9678C25.16 18.3559 23.6417 20.5005 21.4525 21.0939V22.799H18.998V20.0286C18.998 19.3508 19.5475 18.8013 20.2253 18.8013C21.4922 18.8013 22.7054 17.6403 22.7054 15.9678C22.7054 14.2953 21.4922 13.1342 20.2253 13.1342C19.5836 13.1342 18.9793 13.358 18.546 13.7627ZM21.4782 24.7422V27.299H19.0236V24.7422H21.4782Z" fill="white"/>
</svg>