<svg xmlns="http://www.w3.org/2000/svg" width="20" height="20" viewBox="0 0 20 20" fill="none">
    <g clip-path="url(#clip0_949_4087)">
        <path d="M10.8333 5.41634V9.58301H14.1666V11.2497H9.99992C9.53968 11.2497 9.16658 10.8766 9.16658 10.4163V5.41634H10.8333Z" fill="#0C215C"/>
        <path fill-rule="evenodd" clip-rule="evenodd" d="M9.99992 0.833008C4.93731 0.833008 0.833252 4.93706 0.833252 9.99967C0.833252 15.0623 4.93731 19.1663 9.99992 19.1663C15.0625 19.1663 19.1666 15.0623 19.1666 9.99967C19.1666 4.93706 15.0625 0.833008 9.99992 0.833008ZM2.49992 9.99967C2.49992 5.85754 5.85778 2.49967 9.99992 2.49967C14.1421 2.49967 17.4999 5.85754 17.4999 9.99967C17.4999 14.1418 14.1421 17.4997 9.99992 17.4997C5.85778 17.4997 2.49992 14.1418 2.49992 9.99967Z" fill="#0C215C"/>
    </g>
    <defs>
        <clipPath id="clip0_949_4087">
            <rect width="20" height="20" fill="white"/>
        </clipPath>
    </defs>
</svg>