<svg xmlns="http://www.w3.org/2000/svg" width="24" height="24" viewBox="0 0 24 24" fill="none">
    <path d="M8.50195 10.0712L9.00195 17.0712L10.9969 16.9287L10.4969 9.92874L8.50195 10.0712Z" fill="#909AB1"/>
    <path d="M13.502 9.92874L13.002 16.9287L14.9969 17.0712L15.4969 10.0712L13.502 9.92874Z" fill="#909AB1"/>
    <path fill-rule="evenodd" clip-rule="evenodd" d="M8 3.5V4H2V6H4.0571L4.78397 18.3569C4.8332 19.1946 4.87576 19.9188 4.98664 20.4977C5.10574 21.1194 5.3261 21.7097 5.82772 22.1827C6.32934 22.6557 6.93159 22.841 7.55924 22.9234C8.14363 23.0001 8.86913 23.0001 9.7082 23H14.2918C15.1309 23.0001 15.8564 23.0001 16.4408 22.9234C17.0684 22.841 17.6707 22.6557 18.1723 22.1827C18.6739 21.7097 18.8943 21.1194 19.0134 20.4977C19.1242 19.9188 19.1668 19.1946 19.216 18.3569L19.9429 6H22V4H16V3.5C16 2.11929 14.8807 1 13.5 1H10.5C9.11929 1 8 2.11929 8 3.5ZM10.5 3C10.2239 3 10 3.22386 10 3.5V4H14V3.5C14 3.22386 13.7761 3 13.5 3H10.5ZM17.9394 6H6.06055L6.7768 18.1762C6.83087 19.0953 6.86768 19.6868 6.95093 20.1214C7.02876 20.5277 7.12355 20.6557 7.19978 20.7276C7.27601 20.7994 7.40935 20.8866 7.81951 20.9404C8.25824 20.998 8.8509 21 9.77162 21H14.2284C15.1491 21 15.7418 20.998 16.1805 20.9404C16.5907 20.8866 16.724 20.7994 16.8002 20.7276C16.8765 20.6557 16.9712 20.5277 17.0491 20.1214C17.1323 19.6868 17.1691 19.0953 17.2232 18.1762L17.9394 6Z" fill="#909AB1"/>
</svg>