<svg xmlns="http://www.w3.org/2000/svg" width="22" height="22" viewBox="0 0 22 22" fill="none">
    <path d="M19.872 2.51669C19.0634 2.45114 18.3423 3.04117 18.1456 3.82788L17.5556 6.23171C17.2059 7.60845 16.0258 8.61369 14.5835 8.72296C13.2505 8.83222 11.7426 8.87593 10.1255 8.87593C9.71031 8.87593 9.27325 8.89778 8.83619 8.91964C5.44897 9.11631 2.60807 11.4109 1.7121 14.6451L0.685004 18.4476C0.466473 19.2124 0.772416 20.0647 1.47171 20.4143C1.7121 20.5455 1.97433 20.611 2.23657 20.611C2.95772 20.611 3.61331 20.1302 3.80999 19.4091L4.88079 15.5193C5.09932 14.6888 5.55823 13.9895 6.14826 13.4432L6.08271 20.4362C6.08271 20.8514 6.4105 21.1792 6.82571 21.1792H13.3379C13.7531 21.1792 14.0809 20.8514 14.0809 20.4362L14.0154 12.0665C14.2776 12.0446 14.5398 12.0228 14.8021 12.0228C17.643 11.8042 20.0031 9.79376 20.7024 7.04027L21.3361 4.54903C21.5765 3.58749 20.8991 2.60411 19.872 2.51669Z" fill="#16348F"/>
    <path d="M10.1036 7.91415C12.1191 7.91415 13.753 6.28023 13.753 4.26469C13.753 2.24915 12.1191 0.615234 10.1036 0.615234C8.08802 0.615234 6.4541 2.24915 6.4541 4.26469C6.4541 6.28023 8.08802 7.91415 10.1036 7.91415Z" fill="#16348F"/>
</svg>