<svg xmlns="http://www.w3.org/2000/svg" width="24" height="24" viewBox="0 0 24 24" fill="none">
  <path d="M16 13H18V11H16V13Z" fill="#909AB1"/>
  <path fill-rule="evenodd" clip-rule="evenodd" d="M9.92684 1H14.0732C15.8966 0.999974 17.3664 0.999952 18.5223 1.15537C19.7225 1.31672 20.733 1.66191 21.5355 2.46447C22.3381 3.26702 22.6833 4.27752 22.8446 5.47767C23.0001 6.63363 23 8.1034 23 9.92686V14.0731C23 15.8966 23.0001 17.3664 22.8446 18.5223C22.6833 19.7225 22.3381 20.733 21.5355 21.5355C20.733 22.3381 19.7225 22.6833 18.5223 22.8446C17.3664 23.0001 15.8966 23 14.0731 23H9.92686C8.1034 23 6.63363 23.0001 5.47767 22.8446C4.27752 22.6833 3.26702 22.3381 2.46447 21.5355C1.66191 20.733 1.31672 19.7225 1.15537 18.5223C0.999952 17.3664 0.999974 15.8966 1 14.0732V9.92684C0.999974 8.10339 0.999952 6.63362 1.15537 5.47767C1.31672 4.27752 1.66191 3.26702 2.46447 2.46447C3.26702 1.66191 4.27752 1.31672 5.47767 1.15537C6.63362 0.999952 8.10339 0.999974 9.92684 1ZM5.74416 3.13753C4.7658 3.26907 4.2477 3.50966 3.87868 3.87868C3.50966 4.2477 3.26907 4.76579 3.13753 5.74416C3.00213 6.7513 3 8.08611 3 10V14C3 15.9139 3.00213 17.2487 3.13753 18.2558C3.26907 19.2342 3.50966 19.7523 3.87868 20.1213C4.2477 20.4903 4.76579 20.7309 5.74416 20.8625C6.7513 20.9979 8.08611 21 10 21H14C15.9139 21 17.2487 20.9979 18.2558 20.8625C19.2342 20.7309 19.7523 20.4903 20.1213 20.1213C20.4903 19.7523 20.7309 19.2342 20.8625 18.2558C20.9122 17.8857 20.944 17.4712 20.9643 17H17C14.2386 17 12 14.7614 12 12C12 9.23858 14.2386 7 17 7H20.9643C20.944 6.5288 20.9122 6.11434 20.8625 5.74416C20.7309 4.7658 20.4903 4.2477 20.1213 3.87868C19.7523 3.50966 19.2342 3.26907 18.2558 3.13753C17.2487 3.00213 15.9139 3 14 3H10C8.08611 3 6.7513 3.00213 5.74416 3.13753ZM21 14C21 14.3524 20.9999 14.6853 20.999 15H17C15.3431 15 14 13.6569 14 12C14 10.3431 15.3431 9 17 9H20.999C20.9999 9.31474 21 9.64755 21 10V14Z" fill="#909AB1"/>
</svg>